<svg width="109" height="113" viewBox="0 0 109 113" fill="none" xmlns="http://www.w3.org/2000/svg">
<g clip-path="url(#clip0_172_69)">
<path d="M104.629 44.393C102.212 44.393 100.258 44.393 100.258 44.393H91.6083L91.5516 49.4618C94.1649 50.838 95.8871 53.4529 95.8871 56.5L96.0709 84.4998H13.1125V56.5C13.1125 53.5217 14.8783 50.9466 17.4834 49.5464V44.393H8.74171C8.74171 44.393 6.78352 44.393 4.37085 44.393C1.95376 44.393 0 42.5846 0 40.3572V36.3214C0 34.0895 1.95376 32.2855 4.37085 32.2855C6.78352 32.2855 8.74171 32.2855 8.74171 32.2855V40.3572H17.4834V28.25C17.4834 23.7945 21.3996 20.1785 26.225 20.1785H83.046C87.8715 20.1785 91.7874 23.7945 91.7874 28.25L91.652 40.3572H100.258V32.2855C100.258 32.2855 102.212 32.2855 104.629 32.2855C107.041 32.2855 109 34.0895 109 36.3214V40.3572C109 42.5846 107.041 44.393 104.629 44.393ZM39.3375 80.7139H69.9331V76.6786H39.3375V80.7139ZM39.3375 72.6428H69.9331V68.6069H39.3375V72.6428ZM39.3375 64.5711H69.9331V60.5358H39.3375V64.5711ZM21.8541 76.6786C21.8541 78.906 23.808 80.7139 26.225 80.7139H30.5956C33.0086 80.7139 34.9665 78.906 34.9665 76.6786C34.9665 74.4468 33.0086 72.6428 30.5956 72.6428H26.225C23.8123 72.6428 21.8541 74.4468 21.8541 76.6786ZM83.046 32.2855C83.046 30.0539 81.0922 28.25 78.6751 28.25H30.5956C28.179 28.25 26.225 30.0539 26.225 32.2855V52.4641H83.046V32.2855ZM83.046 72.6428H78.6751C76.2579 72.6428 74.3041 74.4468 74.3041 76.6786C74.3041 78.906 76.2579 80.7139 78.6751 80.7139H83.046C85.4584 80.7139 87.4164 78.906 87.4164 76.6786C87.4164 74.4468 85.4584 72.6428 83.046 72.6428ZM87.4164 16.1428H21.8541C17.0288 16.1428 13.1125 19.7588 13.1125 24.2142V4.03572C13.1125 1.80396 15.0663 0 17.4834 0H91.7874C94.2004 0 96.1583 1.80396 96.1583 4.03572V24.2142C96.1583 19.7588 92.2466 16.1428 87.4164 16.1428ZM96.1583 92.5709C96.1583 94.7989 94.2004 96.6068 91.7874 96.6068H17.4834C15.0663 96.6068 13.1125 94.7989 13.1125 92.5709C13.1125 90.3391 13.1125 88.5351 13.1125 88.5351H96.1583C96.1583 88.5351 96.1583 90.3391 96.1583 92.5709ZM34.9665 108.964C34.9665 111.192 33.0086 113 30.5956 113H26.225C23.808 113 21.8541 111.192 21.8541 108.964V100.892H34.9665V108.964ZM87.4164 108.964C87.4164 111.192 85.4584 113 83.046 113H78.6751C76.2579 113 74.3041 111.192 74.3041 108.964V100.892H87.4164V108.964Z" fill="#005BFF"/>
</g>
<defs>
<clipPath id="clip0_172_69">
<rect width="109" height="113" fill="white"/>
</clipPath>
</defs>
</svg>
